# xmcd CD database file
#
# Track frame offsets:
#	150
#	39675
#	72646
#	104583
#	134751
#	167770
#	203287
#	235063
#
# Disc length: 3677 seconds
#
# Revision: 0
# Processed by: cddbd v1.5.2PL0 Copyright (c) Steve Scherf et al.
# Submitted via: CDex 1.81
#
DISCID=730e5b08
DTITLE=Della - Okinawa Nature Sound Gallery
DYEAR=2006
DGENRE=New Age
TTITLE0=Relax Wave
TTITLE1=Morning Wave
TTITLE2=Birds Calling
TTITLE3=Breeze
TTITLE4=Nature's Island
TTITLE5=Secret Wave
TTITLE6=Breath of Forest
TTITLE7=Coral Wave
EXTD=YEAR: 2006
EXTT0=
EXTT1=
EXTT2=
EXTT3=
EXTT4=
EXTT5=
EXTT6=
EXTT7=
PLAYORDER=
